<svg xmlns="http://www.w3.org/2000/svg" viewBox="0 0 560 720" width="560" height="720">
  <defs>
    <linearGradient id="bg" x1="0%" y1="0%" x2="100%" y2="100%">
      <stop offset="0%" stop-color="hsl(145 18% 8%)"/><stop offset="100%" stop-color="hsl(145 22% 4%)"/>
    </linearGradient>
  </defs>
  <rect width="560" height="720" fill="url(#bg)"/>
  <ellipse cx="280" cy="220" rx="200" ry="120" fill="#98b896" fill-opacity="0.07"/>
  <g fill="none" stroke="#98b896" stroke-opacity="0.45" stroke-width="2">
    <path d="M226 148 L218 226 Q216 258 238 274 L246 596 Q246 646 274 674 L362 674 Q396 668 392 596 L392 274 Q418 258 418 226 L418 156 Q382 126 336 134 Q274 126 226 148 Z"/>
    <line x1="206" y1="310" x2="434" y2="310" stroke-opacity="0.18"/>
    <line x1="214" y1="420" x2="426" y2="420" stroke-opacity="0.14"/>
  </g>
  <circle cx="280" cy="198" r="52" stroke="#98b896" stroke-opacity="0.22" stroke-width="1.5" fill="none"/>
  <text x="280" y="705" text-anchor="middle" fill="#98b896" fill-opacity="0.3" font-family="Georgia,serif" font-size="11" letter-spacing="0.35em">MAISON HAN</text>
</svg>